<?xml version="1.0" encoding="UTF-8"?>
<!DOCTYPE svg PUBLIC "-//W3C//DTD SVG 1.1//EN" "http://www.w3.org/Graphics/SVG/1.1/DTD/svg11.dtd">
<!-- Creator: CorelDRAW 2020 (64 Bit) -->
<svg xmlns="http://www.w3.org/2000/svg" xml:space="preserve" width="210mm" height="297mm" version="1.1" style="shape-rendering:geometricPrecision; text-rendering:geometricPrecision; image-rendering:optimizeQuality; fill-rule:evenodd; clip-rule:evenodd"
viewBox="0 0 21000 29700"
 xmlns:xlink="http://www.w3.org/1999/xlink"
 xmlns:xodm="http://www.corel.com/coreldraw/odm/2003">
 <defs>
  <style type="text/css">
   <![CDATA[
    .str0 {stroke:lightgrey;stroke-width:7.62;stroke-miterlimit:22.9256}
    .fil0 {fill:lightgrey}
   ]]>
  </style>
 </defs>
 <g id="Camada_x0020_1">
  <metadata id="CorelCorpID_0Corel-Layer"/>
  <path class="fil0 str0" d="M8664.91 14774.97c98.35,75.3 67.05,69.5 141.6,181.85 -22.35,70.65 -49.2,120.45 -98.4,130.85l-43.2 -312.7zm274.3 33.6c-83.5,39.4 -46.25,16.2 -98.4,-59.05 74.55,25.45 59.65,8.1 98.4,59.05zm117.75 -198.05l-53.65 74.15c-28.35,-33.6 -43.25,-37.05 -52.2,-105.4l105.85 31.25zm-181.85 499.15c277.3,192.25 113.3,330.05 1045.06,844.26 1841.21,1017.96 2792.32,-1335.26 2680.51,-2456.32 -52.15,70.65 -56.65,317.3 -68.55,405.35 -93.95,723.81 -511.35,1695.42 -1165.85,2041.72 -869.16,460.9 -1996.22,-367.15 -2377.87,-977.46 41.75,-165.6 257.9,-354.35 266.85,-518.8 -670.9,-85.7 -366.75,-161 -623.15,-255.95 -79.05,-28.96 -156.55,-39.36 -244.5,-28.96 -41.76,148.26 41.7,170.26 82,332.36 31.3,126.25 25.3,245.55 58.1,364.8 88,319.65 96.9,264.05 40.25,551.25 -31.3,161.01 -11.9,89.2 -1.45,136.66l14.9 38.25c195.3,-49.8 68.55,-315.01 293.7,-477.16z"/>
 </g>
</svg>
